<svg width="112" height="80" viewBox="0 0 112 80" fill="none" xmlns="http://www.w3.org/2000/svg">
<g filter="url(#filter0_d)">
<path d="M73.6831 1.08283C72.2881 -0.360943 69.9663 -0.360943 68.5226 1.08283C67.1276 2.47782 67.1276 4.79957 68.5226 6.19131L94.6893 32.358H8.34266C6.32984 32.3613 4.72998 33.9612 4.72998 35.974C4.72998 37.9868 6.32984 39.6387 8.34266 39.6387H94.6893L68.5226 65.7567C67.1276 67.2004 67.1276 69.5254 68.5226 70.9172C69.9663 72.3609 72.2913 72.3609 73.6831 70.9172L106.044 38.5559C107.488 37.1609 107.488 34.8391 106.044 33.4474L73.6831 1.08283Z" fill="white"/>
</g>
<defs>
<filter id="filter0_d" x="0.72998" y="0" width="110.397" height="80" filterUnits="userSpaceOnUse" color-interpolation-filters="sRGB">
<feFlood flood-opacity="0" result="BackgroundImageFix"/>
<feColorMatrix in="SourceAlpha" type="matrix" values="0 0 0 0 0 0 0 0 0 0 0 0 0 0 0 0 0 0 127 0"/>
<feOffset dy="4"/>
<feGaussianBlur stdDeviation="2"/>
<feColorMatrix type="matrix" values="0 0 0 0 0 0 0 0 0 0 0 0 0 0 0 0 0 0 0.25 0"/>
<feBlend mode="normal" in2="BackgroundImageFix" result="effect1_dropShadow"/>
<feBlend mode="normal" in="SourceGraphic" in2="effect1_dropShadow" result="shape"/>
</filter>
</defs>
</svg>
