<svg width="969" height="723" viewBox="0 0 969 723" fill="none" xmlns="http://www.w3.org/2000/svg">
  <g filter="url(#filter0_d)">
    <path fill-rule="evenodd" clip-rule="evenodd"
      d="M777.64 48.2253C777.64 49.2737 776.806 50.1239 775.776 50.1239C774.747 50.1239 773.912 49.2737 773.912 48.2253C773.912 47.1769 774.747 46.3267 775.776 46.3267C776.806 46.3267 777.64 47.1769 777.64 48.2253ZM256.48 33.0362C256.48 34.0847 255.645 34.9349 254.616 34.9349C253.586 34.9349 252.752 34.0847 252.752 33.0362C252.752 31.9878 253.586 31.1376 254.616 31.1376C255.645 31.1376 256.48 31.9878 256.48 33.0362ZM148.37 434.787C148.37 435.836 147.536 436.686 146.507 436.686C145.477 436.686 144.643 435.836 144.643 434.787C144.643 433.739 145.477 432.889 146.507 432.889C147.536 432.889 148.37 433.739 148.37 434.787ZM179.685 297.326C179.685 298.375 178.851 299.225 177.821 299.225C176.791 299.225 175.957 298.375 175.957 297.326C175.957 296.277 176.791 295.428 177.821 295.428C178.851 295.428 179.685 296.277 179.685 297.326ZM674.75 70.2495C674.75 71.2983 673.916 72.1481 672.886 72.1481C671.857 72.1481 671.022 71.2983 671.022 70.2495C671.022 69.2007 671.857 68.3508 672.886 68.3508C673.916 68.3508 674.75 69.2007 674.75 70.2495ZM507.74 9.49317C507.74 10.542 506.906 11.3918 505.876 11.3918C504.847 11.3918 504.012 10.542 504.012 9.49317C504.012 8.44437 504.847 7.59454 505.876 7.59454C506.906 7.59454 507.74 8.44437 507.74 9.49317ZM317.617 162.143C317.617 163.192 316.783 164.042 315.753 164.042C314.724 164.042 313.889 163.192 313.889 162.143C313.889 161.095 314.724 160.245 315.753 160.245C316.783 160.245 317.617 161.095 317.617 162.143ZM354.151 48.2253C354.151 49.2741 353.316 50.1239 352.287 50.1239C351.257 50.1239 350.423 49.2741 350.423 48.2253C350.423 47.1765 351.257 46.3267 352.287 46.3267C353.316 46.3267 354.151 47.1765 354.151 48.2253ZM652.383 1.89863C652.383 2.94744 651.548 3.79727 650.519 3.79727C649.489 3.79727 648.655 2.94744 648.655 1.89863C648.655 0.849829 649.489 0 650.519 0C651.548 0 652.383 0.849829 652.383 1.89863ZM445.159 120.796C444.93 119.773 445.557 118.756 446.561 118.523C447.565 118.29 448.563 118.929 448.792 119.951C449.021 120.973 448.393 121.99 447.39 122.224C446.386 122.457 445.388 121.818 445.159 120.796ZM759.048 189.147C758.819 188.125 759.446 187.107 760.45 186.874C761.453 186.64 762.453 187.28 762.682 188.302C762.91 189.324 762.283 190.341 761.279 190.575C760.276 190.808 759.277 190.169 759.048 189.147ZM234.905 349.391C234.676 348.369 235.303 347.352 236.307 347.119C237.31 346.885 238.31 347.524 238.539 348.546C238.767 349.569 238.14 350.586 237.136 350.82C236.133 351.053 235.134 350.413 234.905 349.391ZM328.848 503.56C328.619 502.538 329.246 501.521 330.25 501.288C331.254 501.054 332.253 501.694 332.481 502.716C332.711 503.737 332.083 504.756 331.079 504.989C330.076 505.222 329.077 504.583 328.848 503.56ZM266.965 602.289C266.736 601.267 267.364 600.25 268.367 600.017C269.37 599.783 270.369 600.422 270.599 601.444C270.827 602.467 270.2 603.484 269.196 603.718C268.193 603.951 267.194 603.311 266.965 602.289ZM505.551 593.176C505.322 592.154 505.949 591.136 506.953 590.903C507.956 590.67 508.955 591.309 509.184 592.331C509.413 593.353 508.785 594.371 507.782 594.604C506.779 594.837 505.78 594.198 505.551 593.176ZM633.045 540.014C632.816 538.992 633.444 537.975 634.447 537.741C635.45 537.508 636.449 538.148 636.679 539.169C636.907 540.192 636.28 541.209 635.276 541.442C634.273 541.676 633.274 541.036 633.045 540.014ZM738.172 668.362C737.943 667.34 738.57 666.322 739.574 666.089C740.577 665.855 741.576 666.495 741.805 667.517C742.034 668.539 741.407 669.556 740.403 669.79C739.4 670.023 738.4 669.384 738.172 668.362ZM874.613 370.656C874.384 369.634 875.011 368.617 876.015 368.383C877.018 368.15 878.017 368.789 878.247 369.811C878.475 370.833 877.848 371.851 876.844 372.084C875.841 372.318 874.842 371.678 874.613 370.656ZM966.319 230.916C966.09 229.895 966.718 228.877 967.721 228.644C968.725 228.41 969.724 229.05 969.953 230.072C970.182 231.094 969.554 232.111 968.551 232.345C967.547 232.578 966.548 231.938 966.319 230.916ZM601.683 620.094C601.683 621.143 600.849 621.993 599.819 621.993C598.79 621.993 597.955 621.143 597.955 620.094C597.955 619.045 598.79 618.195 599.819 618.195C600.849 618.195 601.683 619.045 601.683 620.094ZM546.51 721.101C546.51 722.15 545.676 723 544.646 723C543.617 723 542.782 722.15 542.782 721.101C542.782 720.053 543.617 719.203 544.646 719.203C545.676 719.203 546.51 720.053 546.51 721.101ZM728.432 525.922C728.432 526.971 727.598 527.82 726.568 527.82C725.538 527.82 724.704 526.971 724.704 525.922C724.704 524.873 725.538 524.023 726.568 524.023C727.598 524.023 728.432 524.873 728.432 525.922ZM173.72 538.073C173.72 539.122 172.886 539.972 171.856 539.972C170.827 539.972 169.992 539.122 169.992 538.073C169.992 537.024 170.827 536.174 171.856 536.174C172.886 536.174 173.72 537.024 173.72 538.073ZM898.424 307.199C898.424 308.248 897.59 309.098 896.56 309.098C895.531 309.098 894.696 308.248 894.696 307.199C894.696 306.15 895.531 305.3 896.56 305.3C897.59 305.3 898.424 306.15 898.424 307.199ZM370.553 674.775C370.553 675.823 369.719 676.673 368.689 676.673C367.66 676.673 366.826 675.823 366.826 674.775C366.826 673.726 367.66 672.876 368.689 672.876C369.719 672.876 370.553 673.726 370.553 674.775ZM3.7279 651.991C3.7279 653.039 2.89322 653.89 1.86395 653.89C0.834677 653.89 0 653.039 0 651.991C0 650.943 0.834677 650.092 1.86395 650.092C2.89322 650.092 3.7279 650.943 3.7279 651.991ZM48.4627 165.941C48.4627 166.989 47.628 167.839 46.5988 167.839C45.5695 167.839 44.7348 166.989 44.7348 165.941C44.7348 164.892 45.5695 164.042 46.5988 164.042C47.628 164.042 48.4627 164.892 48.4627 165.941ZM882.022 634.524C882.022 635.572 881.187 636.422 880.158 636.422C879.128 636.422 878.294 635.572 878.294 634.524C878.294 633.475 879.128 632.625 880.158 632.625C881.187 632.625 882.022 633.475 882.022 634.524ZM817.156 476.557C817.156 477.606 816.321 478.456 815.292 478.456C814.263 478.456 813.428 477.606 813.428 476.557C813.428 475.509 814.263 474.659 815.292 474.659C816.321 474.659 817.156 475.509 817.156 476.557ZM849.962 182.649C849.962 183.697 849.127 184.547 848.098 184.547C847.068 184.547 846.234 183.697 846.234 182.649C846.234 181.6 847.068 180.75 848.098 180.75C849.127 180.75 849.962 181.6 849.962 182.649ZM460.769 74.8062C460.769 75.8546 459.934 76.7048 458.905 76.7048C457.875 76.7048 457.041 75.8546 457.041 74.8062C457.041 73.7578 457.875 72.9076 458.905 72.9076C459.934 72.9076 460.769 73.7578 460.769 74.8062Z"
      fill="white" />
  </g>
  <defs>
    <filter id="filter0_d" x="-4" y="0" width="978" height="731" filterUnits="userSpaceOnUse"
      color-interpolation-filters="sRGB">
      <feFlood flood-opacity="0" result="BackgroundImageFix" />
      <feColorMatrix in="SourceAlpha" type="matrix" values="0 0 0 0 0 0 0 0 0 0 0 0 0 0 0 0 0 0 127 0" />
      <feOffset dy="4" />
      <feGaussianBlur stdDeviation="2" />
      <feColorMatrix type="matrix" values="0 0 0 0 0 0 0 0 0 0 0 0 0 0 0 0 0 0 0.25 0" />
      <feBlend mode="normal" in2="BackgroundImageFix" result="effect1_dropShadow" />
      <feBlend mode="normal" in="SourceGraphic" in2="effect1_dropShadow" result="shape" />
    </filter>
  </defs>
</svg>