<?xml version="1.0" encoding="utf-8"?>
<!-- Generator: Adobe Illustrator 23.1.0, SVG Export Plug-In . SVG Version: 6.00 Build 0)  -->
<svg version="1.1" id="Слой_1" xmlns="http://www.w3.org/2000/svg" xmlns:xlink="http://www.w3.org/1999/xlink" x="0px" y="0px"
	 viewBox="0 0 710 540" style="enable-background:new 0 0 710 540;" xml:space="preserve">
<style type="text/css">
	.st0{clip-path:url(#SVGID_2_);}
	.st1{opacity:0.3;}
	.st2{opacity:0.3;fill-rule:evenodd;clip-rule:evenodd;fill:#FFFFFF;enable-background:new    ;}
	.st3{clip-path:url(#SVGID_4_);}
</style>
<g>
	<g>
		<defs>
			<rect id="SVGID_1_" y="20" width="364.2" height="179.3"/>
		</defs>
		<clipPath id="SVGID_2_">
			<use xlink:href="#SVGID_1_"  style="overflow:visible;"/>
		</clipPath>
		<g class="st0">
			<g class="st1">
				<path class="st2" d="M128.8,30.2c0,5.5,5.3,10.1,11.8,10.1h118.2c6.5,0,11.8-4.5,11.8-10.1c0-5.5-5.3-10.1-11.8-10.1H140.6
					C134.1,20.1,128.8,24.7,128.8,30.2z M326.7,68.5c0,5.5,5.3,10.1,11.8,10.1h13.3c6.5,0,11.8-4.5,11.8-10.1
					c0-5.5-5.3-10.1-11.8-10.1h-13.3C332,58.4,326.7,62.9,326.7,68.5z M94.6,30.2c0,5.5,4.4,10.1,9.8,10.1s9.8-4.5,9.8-10.1
					c0-5.5-4.4-10.1-9.8-10.1C99.1,20.1,94.6,24.7,94.6,30.2z M33,108.7c0,5.5,5.3,10.1,11.8,10.1h13.3c6.5,0,11.8-4.5,11.8-10.1
					c0-5.6-5.3-10-11.8-10H44.8C38.3,98.7,33,103.2,33,108.7z"/>
				<path class="st2" d="M11.8,179.2H106c6.5,0,11.8-4.5,11.8-10.1c0-5.5-5.3-10.1-11.8-10.1h-5.1c-6.5,0-11.8-4.5-11.8-10.1
					s5.3-10.1,11.8-10.1h64c6.5,0,11.8-4.5,11.8-10.1s-5.3-10.1-11.8-10.1h-77c-6.5,0-11.8-4.5-11.8-10.1c0-5.5,5.3-10.1,11.8-10.1
					h99.7c6.5,0,11.8-4.5,11.8-10.1c0-5.5-5.3-10.1-11.8-10.1h-82.4c-6.5,0-11.8-4.5-11.8-10.1c0-5.5,5.3-10.1,11.8-10.1h200.2
					c6.5,0,11.8,4.5,11.8,10.1c0,5.5-5.3,10.1-11.8,10.1h-75c-6.5,0-11.8,4.5-11.8,10.1c0,5.5,5.3,10.1,11.8,10.1h28.3
					c6.5,0,11.8,4.5,11.8,10.1c0,5.5-5.3,10.1-11.8,10.1h0.4c-6.5,0-11.8,4.5-11.8,10.1c0,5.6,5.3,10.1,11.8,10.1h89.1
					c6.5,0,11.8,4.5,11.8,10.1s-5.3,10.1-11.8,10.1H194c-6.5,0-11.8,4.5-11.8,10.1c0,5.5,5.3,10.1,11.8,10.1h18.1
					c6.5,0,11.8,4.5,11.8,10.1s-5.3,10.1-11.8,10.1H11.8c-6.5,0-11.8-4.5-11.8-10.1S5.3,179.2,11.8,179.2z"/>
			</g>
		</g>
	</g>
</g>
<g>
	<g>
		<defs>
			<rect id="SVGID_3_" x="330.1" width="307.9" height="152.4"/>
		</defs>
		<clipPath id="SVGID_4_">
			<use xlink:href="#SVGID_3_"  style="overflow:visible;"/>
		</clipPath>
		<g class="st3">
			<g class="st1">
				<path class="st2" d="M439.3,143.3c0-4.7,4.5-8.5,10-8.5h99.9c5.5,0,10,3.8,10,8.5s-4.5,8.5-10,8.5h-99.9
					C443.8,151.8,439.3,148,439.3,143.3z M606.6,111.1c0-4.7,4.5-8.5,10-8.5h11.3c5.5,0,10,3.8,10,8.5s-4.5,8.5-10,8.5h-11.3
					C611.1,119.5,606.6,115.7,606.6,111.1z M410.5,143.3c0-4.7,3.7-8.5,8.3-8.5s8.3,3.8,8.3,8.5s-3.7,8.5-8.3,8.5
					S410.5,148,410.5,143.3z M358.4,77.1c0-4.7,4.5-8.5,10-8.5h11.3c5.5,0,10,3.8,10,8.5s-4.5,8.5-10,8.5h-11.3
					C362.8,85.6,358.4,81.8,358.4,77.1z"/>
				<path class="st2" d="M340.4,17.7h79.7c5.5,0,10,3.8,10,8.5s-4.5,8.5-10,8.5h-4.3c-5.5,0-10,3.8-10,8.5s4.5,8.5,10,8.5h54.1
					c5.5,0,10,3.8,10,8.5s-4.5,8.5-10,8.5h-65c-5.5,0-10,3.8-10,8.5s4.5,8.5,10,8.5h84.3c5.5,0,10,3.8,10,8.5s-4.5,8.5-10,8.5h-69.7
					c-5.5,0-10,3.8-10,8.5s4.5,8.5,10,8.5h169.3c5.5,0,10-3.8,10-8.5s-4.5-8.5-10-8.5h-63.4c-5.5,0-10-3.8-10-8.5s4.5-8.5,10-8.5
					h23.8c5.5,0,10-3.8,10-8.5s-4.5-8.5-10-8.5h0.3c-5.5,0-10-3.8-10-8.5s4.5-8.5,10-8.5h75.3c5.5,0,10-3.8,10-8.5s-4.5-8.5-10-8.5
					H494.4c-5.5,0-10-3.8-10-8.5s4.5-8.5,10-8.5h15.3c5.5,0,10-3.8,10-8.5s-4.5-8.5-10-8.5H340.4c-5.5,0-10,3.8-10,8.5
					C330.5,13.9,335,17.7,340.4,17.7z"/>
			</g>
		</g>
	</g>
</g>
</svg>
