<?xml version="1.0" encoding="utf-8"?>
<!-- Generator: Adobe Illustrator 23.1.0, SVG Export Plug-In . SVG Version: 6.00 Build 0)  -->
<svg version="1.1" id="Слой_1" xmlns="http://www.w3.org/2000/svg" xmlns:xlink="http://www.w3.org/1999/xlink" x="0px" y="0px"
	 viewBox="0 0 710 540" style="enable-background:new 0 0 710 540;" xml:space="preserve">
<style type="text/css">
	.st0{clip-path:url(#SVGID_2_);}
	.st1{opacity:0.3;}
	.st2{opacity:0.3;fill-rule:evenodd;clip-rule:evenodd;fill:#FFFFFF;enable-background:new    ;}
</style>
<g>
	<defs>
		<rect id="SVGID_1_" x="328.9" y="0.5" width="307.9" height="152.4"/>
	</defs>
	<clipPath id="SVGID_2_">
		<use xlink:href="#SVGID_1_"  style="overflow:visible;"/>
	</clipPath>
	<g class="st0">
		<g class="st1">
			<path class="st2" d="M438.1,143.8c0-4.7,4.5-8.5,10-8.5H548c5.5,0,10,3.8,10,8.5c0,4.7-4.5,8.5-10,8.5h-99.9
				C442.6,152.3,438.1,148.5,438.1,143.8z M605.4,111.6c0-4.7,4.5-8.5,10-8.5h11.3c5.5,0,10,3.8,10,8.5c0,4.7-4.5,8.5-10,8.5h-11.3
				C609.9,120,605.4,116.2,605.4,111.6z M409.3,143.8c0-4.7,3.7-8.5,8.3-8.5s8.3,3.8,8.3,8.5c0,4.7-3.7,8.5-8.3,8.5
				S409.3,148.5,409.3,143.8z M357.2,77.6c0-4.7,4.5-8.5,10-8.5h11.3c5.5,0,10,3.8,10,8.5c0,4.7-4.5,8.5-10,8.5h-11.3
				C361.6,86.1,357.2,82.3,357.2,77.6z"/>
			<path class="st2" d="M339.2,18.2h79.7c5.5,0,10,3.8,10,8.5c0,4.7-4.5,8.5-10,8.5h-4.3c-5.5,0-10,3.8-10,8.5c0,4.7,4.5,8.5,10,8.5
				h54.1c5.5,0,10,3.8,10,8.5c0,4.7-4.5,8.5-10,8.5h-65c-5.5,0-10,3.8-10,8.5c0,4.7,4.5,8.5,10,8.5h84.3c5.5,0,10,3.8,10,8.5
				c0,4.7-4.5,8.5-10,8.5h-69.7c-5.5,0-10,3.8-10,8.5c0,4.7,4.5,8.5,10,8.5h169.3c5.5,0,10-3.8,10-8.5c0-4.7-4.5-8.5-10-8.5h-63.4
				c-5.5,0-10-3.8-10-8.5c0-4.7,4.5-8.5,10-8.5H548c5.5,0,10-3.8,10-8.5c0-4.7-4.5-8.5-10-8.5h0.3c-5.5,0-10-3.8-10-8.5
				c0-4.7,4.5-8.5,10-8.5h75.3c5.5,0,10-3.8,10-8.5c0-4.7-4.5-8.5-10-8.5H493.2c-5.5,0-10-3.8-10-8.5c0-4.7,4.5-8.5,10-8.5h15.3
				c5.5,0,10-3.8,10-8.5c0-4.7-4.5-8.5-10-8.5H339.2c-5.5,0-10,3.8-10,8.5C329.3,14.4,333.8,18.2,339.2,18.2z"/>
		</g>
	</g>
</g>
</svg>
