<?xml version="1.0" encoding="utf-8"?>
<!-- Generator: Adobe Illustrator 23.1.0, SVG Export Plug-In . SVG Version: 6.00 Build 0)  -->
<svg version="1.1" id="Слой_1" xmlns="http://www.w3.org/2000/svg" xmlns:xlink="http://www.w3.org/1999/xlink" x="0px" y="0px"
	 viewBox="0 0 710 540" style="enable-background:new 0 0 710 540;" xml:space="preserve">
<style type="text/css">
	.st0{clip-path:url(#SVGID_2_);}
	.st1{opacity:0.3;}
	.st2{opacity:0.3;fill-rule:evenodd;clip-rule:evenodd;fill:#FFFFFF;enable-background:new    ;}
</style>
<g>
	<defs>
		<rect id="SVGID_1_" x="-0.1" y="22.3" width="364.2" height="179.3"/>
	</defs>
	<clipPath id="SVGID_2_">
		<use xlink:href="#SVGID_1_"  style="overflow:visible;"/>
	</clipPath>
	<g class="st0">
		<g class="st1">
			<path class="st2" d="M128.7,32.5c0,5.5,5.3,10.1,11.8,10.1h118.2c6.5,0,11.8-4.5,11.8-10.1c0-5.5-5.3-10.1-11.8-10.1H140.5
				C134,22.4,128.7,27,128.7,32.5z M326.6,70.8c0,5.5,5.3,10.1,11.8,10.1h13.3c6.5,0,11.8-4.5,11.8-10.1c0-5.5-5.3-10.1-11.8-10.1
				h-13.3C331.9,60.7,326.6,65.2,326.6,70.8z M94.5,32.5c0,5.5,4.4,10.1,9.8,10.1c5.4,0,9.8-4.5,9.8-10.1c0-5.5-4.4-10.1-9.8-10.1
				C99,22.4,94.5,27,94.5,32.5z M32.9,111c0,5.5,5.3,10.1,11.8,10.1H58c6.5,0,11.8-4.5,11.8-10.1S64.5,101,58,101H44.7
				C38.2,101,32.9,105.5,32.9,111z"/>
			<path class="st2" d="M11.7,181.5h94.2c6.5,0,11.8-4.5,11.8-10.1c0-5.5-5.3-10.1-11.8-10.1h-5.1c-6.5,0-11.8-4.5-11.8-10.1
				s5.3-10.1,11.8-10.1h64c6.5,0,11.8-4.5,11.8-10.1s-5.3-10.1-11.8-10.1h-77c-6.5,0-11.8-4.5-11.8-10.1c0-5.5,5.3-10.1,11.8-10.1
				h99.7c6.5,0,11.8-4.5,11.8-10.1c0-5.5-5.3-10.1-11.8-10.1h-82.4c-6.5,0-11.8-4.5-11.8-10.1c0-5.5,5.3-10.1,11.8-10.1h200.2
				c6.5,0,11.8,4.5,11.8,10.1c0,5.5-5.3,10.1-11.8,10.1h-75c-6.5,0-11.8,4.5-11.8,10.1c0,5.5,5.3,10.1,11.8,10.1h28.3
				c6.5,0,11.8,4.5,11.8,10.1c0,5.5-5.3,10.1-11.8,10.1h0.4c-6.5,0-11.8,4.5-11.8,10.1s5.3,10.1,11.8,10.1h89.1
				c6.5,0,11.8,4.5,11.8,10.1s-5.3,10.1-11.8,10.1H193.9c-6.5,0-11.8,4.5-11.8,10.1c0,5.5,5.3,10.1,11.8,10.1h18.1
				c6.5,0,11.8,4.5,11.8,10.1s-5.3,10.1-11.8,10.1H11.7c-6.5,0-11.8-4.5-11.8-10.1S5.2,181.5,11.7,181.5z"/>
		</g>
	</g>
</g>
</svg>
