<?xml version="1.0" encoding="utf-8"?>
<!-- Generator: Adobe Illustrator 23.1.0, SVG Export Plug-In . SVG Version: 6.00 Build 0)  -->
<svg version="1.1" id="Слой_1" xmlns="http://www.w3.org/2000/svg" xmlns:xlink="http://www.w3.org/1999/xlink" x="0px" y="0px"
	 viewBox="0 0 710 540" style="enable-background:new 0 0 710 540;" xml:space="preserve">
<style type="text/css">
	.st0{clip-path:url(#SVGID_2_);}
	.st1{fill-rule:evenodd;clip-rule:evenodd;fill:#072142;}
	.st2{clip-path:url(#SVGID_4_);}
	.st3{clip-path:url(#SVGID_6_);}
</style>
<g>
	<g>
		<defs>
			<rect id="SVGID_1_" x="-0.4" y="344.5" width="303" height="150.4"/>
		</defs>
		<clipPath id="SVGID_2_">
			<use xlink:href="#SVGID_1_"  style="overflow:visible;"/>
		</clipPath>
		<g class="st0">
			<path class="st1" d="M194.9,353.4c0,4.6-4.4,8.4-9.8,8.4H86.8c-5.4,0-9.8-3.8-9.8-8.4s4.4-8.4,9.8-8.4h98.3
				C190.5,345,194.9,348.8,194.9,353.4z M30.3,385.4c0,4.6-4.4,8.4-9.8,8.4H9.4c-5.4,0-9.8-3.8-9.8-8.4S4,377,9.4,377h11.1
				C25.9,377,30.3,380.8,30.3,385.4z M223.3,353.4c0,4.6-3.7,8.4-8.2,8.4s-8.2-3.8-8.2-8.4s3.7-8.4,8.2-8.4S223.3,348.8,223.3,353.4
				z M274.6,419c0,4.6-4.4,8.4-9.8,8.4h-11.1c-5.4,0-9.8-3.8-9.8-8.4s4.4-8.4,9.8-8.4h11.1C270.2,410.6,274.6,414.4,274.6,419z"/>
			<path class="st1" d="M292.3,477.9h-78.4c-5.4,0-9.8-3.8-9.8-8.4s4.4-8.4,9.8-8.4h4.2c5.4,0,9.8-3.8,9.8-8.4s-4.4-8.4-9.8-8.4
				h-53.2c-5.4,0-9.8-3.8-9.8-8.4s4.4-8.4,9.8-8.4h64c5.4,0,9.8-3.8,9.8-8.4s-4.4-8.4-9.8-8.4h-83c-5.4,0-9.8-3.8-9.8-8.4
				s4.4-8.4,9.8-8.4h68.6c5.4,0,9.8-3.8,9.8-8.4s-4.4-8.4-9.8-8.4H47.9c-5.4,0-9.8,3.8-9.8,8.4s4.4,8.4,9.8,8.4h62.4
				c5.4,0,9.8,3.8,9.8,8.4s-4.4,8.4-9.8,8.4H86.8c-5.4,0-9.8,3.8-9.8,8.4s4.4,8.4,9.8,8.4h-0.3c5.4,0,9.8,3.8,9.8,8.4
				s-4.4,8.4-9.8,8.4H12.3c-5.4,0-9.8,3.8-9.8,8.4s4.4,8.4,9.8,8.4h128.4c5.4,0,9.8,3.8,9.8,8.4s-4.4,8.4-9.8,8.4h-15
				c-5.4,0-9.8,3.8-9.8,8.4s4.4,8.4,9.8,8.4h166.6c5.4,0,9.8-3.8,9.8-8.4S297.6,477.9,292.3,477.9z"/>
		</g>
	</g>
</g>
<g>
	<g>
		<defs>
			<rect id="SVGID_3_" x="324.2" y="386.6" width="310.8" height="153.4"/>
		</defs>
		<clipPath id="SVGID_4_">
			<use xlink:href="#SVGID_3_"  style="overflow:visible;"/>
		</clipPath>
		<g class="st2">
			<path class="st1" d="M355.7,498.6c0-4.7-4.5-8.6-10.1-8.6h-11.4c-5.5,0-10,3.9-10,8.6s4.5,8.6,10,8.6h11.4
				C351.2,507.2,355.7,503.3,355.7,498.6z M553.7,531.2c0-4.7-3.8-8.6-8.4-8.6c-4.6,0-8.4,3.9-8.4,8.6c0,4.7,3.8,8.6,8.4,8.6
				S553.7,535.9,553.7,531.2z M606.3,464.3c0-4.7-4.5-8.6-10-8.6h-11.4c-5.5,0-10,3.9-10,8.6s4.5,8.6,10,8.6h11.4
				C601.8,472.9,606.3,469,606.3,464.3z"/>
			<path class="st1" d="M624.4,404.3H544c-5.5,0-10.1,3.9-10.1,8.6s4.5,8.6,10.1,8.6h4.4c5.5,0,10.1,3.9,10.1,8.6s-4.5,8.6-10.1,8.6
				h-54.6c-5.5,0-10,3.9-10,8.6s4.5,8.6,10,8.6h65.7c5.5,0,10,3.9,10,8.6s-4.5,8.6-10,8.6h-85.1c-5.5,0-10.1,3.9-10.1,8.6
				s4.5,8.6,10.1,8.6h70.4c5.5,0,10,3.9,10,8.6s-4.5,8.6-10,8.6h-171c-5.5,0-10-3.9-10-8.6s4.5-8.6,10-8.6h64
				c5.5,0,10.1-3.9,10.1-8.6s-4.5-8.6-10.1-8.6h-24.1c-5.5,0-10.1-3.9-10.1-8.6s4.5-8.6,10.1-8.6h-0.3c5.5,0,10.1-3.9,10.1-8.6
				s-4.5-8.6-10.1-8.6h-76c-5.5,0-10.1-3.9-10.1-8.6s4.5-8.6,10.1-8.6h131.7c5.5,0,10.1-3.9,10.1-8.6s-4.5-8.6-10.1-8.6h-15.4
				c-5.5,0-10.1-3.9-10.1-8.6s4.5-8.6,10.1-8.6h170.9c5.5,0,10,3.9,10,8.6C634.4,400.4,629.9,404.3,624.4,404.3z M524.5,531.2
				c0-4.7-4.5-8.6-10-8.6H413.6c-5.5,0-10.1,3.9-10.1,8.6c0,4.7,4.5,8.6,10.1,8.6h100.8C520,539.8,524.5,535.9,524.5,531.2z"/>
		</g>
	</g>
</g>
<g>
	<g>
		<defs>
			<rect id="SVGID_5_" x="412.8" y="148.5" width="297.2" height="146.5"/>
		</defs>
		<clipPath id="SVGID_6_">
			<use xlink:href="#SVGID_5_"  style="overflow:visible;"/>
		</clipPath>
		<g class="st3">
			<path class="st1" d="M449.9,180.9c-4.3,0-7.9,3.7-7.9,8.1c0,4.5,3.6,8.1,7.9,8.1s7.9-3.7,7.9-8.1
				C457.8,184.6,454.2,180.9,449.9,180.9z"/>
			<path class="st1" d="M668.1,278.3h-74.9c-5.2,0-9.5-3.7-9.5-8.1c0-4.5,4.3-8.1,9.5-8.1h1.5c5.2,0,9.5-3.7,9.5-8.1
				c0-4.5-4.3-8.1-9.5-8.1h-37.1c-5.2,0-9.5-3.7-9.5-8.1c0-4.5,4.3-8.1,9.5-8.1h68.3c5.2,0,9.5-3.7,9.5-8.1c0-4.5-4.3-8.1-9.5-8.1
				h-76.8c-5.2,0-9.5-3.7-9.5-8.1s4.3-8.1,9.5-8.1h38.5c5.2,0,9.5-3.7,9.5-8.1c0-4.5-4.3-8.1-9.5-8.1h0.4c-5.2,0-9.5-3.7-9.5-8.1
				s4.3-8.1,9.5-8.1h50.1c5.2,0,9.5-3.7,9.5-8.1c0-4.5-4.3-8.1-9.5-8.1H524.9c-5.2,0-9.5,3.7-9.5,8.1c0,4.5,4.3,8.1,9.5,8.1h28.8
				c5.2,0,9.5,3.7,9.5,8.1s-4.3,8.1-9.5,8.1h-75.3c-5.2,0-9.5,3.7-9.5,8.1c0,4.5,4.3,8.1,9.5,8.1h0.1c5.2,0,9.5,3.7,9.5,8.1
				s-4.3,8.1-9.5,8.1h-55.8c-5.2,0-9.5,3.7-9.5,8.1c0,4.5,4.3,8.1,9.5,8.1h100.6c5.2,0,9.5,3.7,9.5,8.1c0,4.5-4.3,8.1-9.5,8.1h-2.4
				c-5.2,0-9.5,3.7-9.5,8.1c0,4.5,4.3,8.1,9.5,8.1h37.8c5.2,0,9.5,3.7,9.5,8.1c0,4.5-4.3,8.1-9.5,8.1h-74.4c-5.2,0-9.5,3.7-9.5,8.1
				c0,4.5,4.3,8.1,9.5,8.1h183.8c5.2,0,9.5-3.7,9.5-8.1S673.3,278.3,668.1,278.3z M700.5,278.3H693c-5.2,0-9.5,3.7-9.5,8.1
				c0,4.5,4.3,8.1,9.5,8.1h7.5c5.2,0,9.5-3.7,9.5-8.1C709.9,282,705.7,278.3,700.5,278.3z"/>
			<path class="st1" d="M612.1,254c0,4.5,4.3,8.1,9.5,8.1h32.8c5.2,0,9.5-3.7,9.5-8.1c0-4.5-4.3-8.1-9.5-8.1h-32.8
				C616.3,245.8,612.1,249.5,612.1,254z"/>
		</g>
	</g>
</g>
</svg>
