<?xml version="1.0" encoding="utf-8"?>
<!-- Generator: Adobe Illustrator 23.1.0, SVG Export Plug-In . SVG Version: 6.00 Build 0)  -->
<svg version="1.1" id="Слой_1" xmlns="http://www.w3.org/2000/svg" xmlns:xlink="http://www.w3.org/1999/xlink" x="0px" y="0px"
	 viewBox="0 0 710 540" style="enable-background:new 0 0 710 540;" xml:space="preserve">
<style type="text/css">
	.st0{clip-path:url(#SVGID_2_);}
	.st1{fill-rule:evenodd;clip-rule:evenodd;fill:#FFFFFA;}
	.st2{fill-rule:evenodd;clip-rule:evenodd;fill:#E6E6E6;fill-opacity:0.3;}
</style>
<g>
	<defs>
		<rect id="SVGID_1_" x="139.3" y="59.2" width="409.9" height="420.4"/>
	</defs>
	<clipPath id="SVGID_2_">
		<use xlink:href="#SVGID_1_"  style="overflow:visible;"/>
	</clipPath>
	<g class="st0">
		<path class="st1" d="M549,269.3c0,116.1-91.7,210.1-204.9,210.1c-113.1,0-204.9-94.1-204.9-210.1c0-116.1,91.7-210.1,204.9-210.1
			C457.3,59.2,549,153.3,549,269.3z"/>
		<path class="st2" d="M289.2,207c0,25.4-20,45.9-44.7,45.9c-24.7,0-44.7-20.5-44.7-45.9c0-25.4,20-45.9,44.7-45.9
			C269.2,161.1,289.2,181.6,289.2,207z M362.6,133.7c0,16.2-12.8,29.4-28.6,29.4c-15.8,0-28.6-13.2-28.6-29.4
			c0-16.2,12.8-29.4,28.6-29.4C349.8,104.3,362.6,117.5,362.6,133.7z M359.8,214.7c0,10.4-8.2,18.8-18.3,18.8
			c-10.1,0-18.3-8.4-18.3-18.8c0-10.4,8.2-18.8,18.3-18.8C351.6,195.9,359.8,204.3,359.8,214.7z"/>
	</g>
</g>
</svg>
